<svg xmlns="http://www.w3.org/2000/svg" fill="none" viewBox="0 0 600 600"><path fill="currentColor" fill-rule="evenodd" d="M600 300a300 300 0 1 1-600 0 300 300 0 0 1 600 0M219.7 422.2c22.6.8 45.2-4 65.6-14v-27a116 116 0 0 1-61.5 16 81 81 0 0 1-62-25.7 98 98 0 0 1-23.7-68.8 103 103 0 0 1 25.3-72.6 86 86 0 0 1 65.6-27.2c19.7-.3 39 4.6 56.3 14.1v-29.5c-17.7-7-36.7-10.1-55.7-9.4a116 116 0 0 0-86.8 34.8 126 126 0 0 0-34.1 91.6 120 120 0 0 0 30.2 85.2c21 22 50.4 33.8 80.8 32.5m271.2-156.7 3.7-17.4h-43.3l13.9-66.2h-20.3l-14.1 66.3h-41.6l14-66.3h-21l-13.9 66.3h-45.6l-3.5 17.4H365L355 315h-43.7l-3.3 17.4h43.5l-13.9 65.7h20.3l13.8-65.7H413l-14.2 65.7h20.7l14.6-65.7h45.3l4.4-17.4h-46.3l10.4-49.5zm-105.1 0h41.6L416.8 315H375z" clip-rule="evenodd"/></svg>
